<?xml version="1.0" encoding="UTF-8"?>
<svg xmlns="http://www.w3.org/2000/svg" xmlns:xlink="http://www.w3.org/1999/xlink" width="375pt" height="374.999991pt" viewBox="0 0 375 374.999991" version="1.2">
<defs>
<clipPath id="clip1">
  <path d="M 37 36 L 179 36 L 179 134 L 37 134 Z M 37 36 "/>
</clipPath>
<clipPath id="clip2">
  <path d="M 109.738281 2.179688 L 188.089844 124.78125 L 112.886719 172.84375 L 34.535156 50.242188 Z M 109.738281 2.179688 "/>
</clipPath>
<clipPath id="clip3">
  <path d="M 109.738281 2.179688 L 188.089844 124.78125 L 112.886719 172.84375 L 34.535156 50.242188 Z M 109.738281 2.179688 "/>
</clipPath>
<clipPath id="clip4">
  <path d="M 36 49 L 169 49 L 169 137 L 36 137 Z M 36 49 "/>
</clipPath>
<clipPath id="clip5">
  <path d="M 100.394531 16.976562 L 176.828125 127.34375 L 109.621094 173.886719 L 33.1875 63.519531 Z M 100.394531 16.976562 "/>
</clipPath>
<clipPath id="clip6">
  <path d="M 100.394531 16.976562 L 176.828125 127.34375 L 109.621094 173.886719 L 33.1875 63.519531 Z M 100.394531 16.976562 "/>
</clipPath>
<clipPath id="clip7">
  <path d="M 47 58 L 158 58 L 158 138 L 47 138 Z M 47 58 "/>
</clipPath>
<clipPath id="clip8">
  <path d="M 105.746094 32.039062 L 164.71875 131.347656 L 104.097656 167.34375 L 45.128906 68.03125 Z M 105.746094 32.039062 "/>
</clipPath>
<clipPath id="clip9">
  <path d="M 105.746094 32.039062 L 164.71875 131.347656 L 104.097656 167.34375 L 45.128906 68.03125 Z M 105.746094 32.039062 "/>
</clipPath>
<clipPath id="clip10">
  <path d="M 195 35 L 332 35 L 332 131 L 195 131 Z M 195 35 "/>
</clipPath>
<clipPath id="clip11">
  <path d="M 334.859375 48.109375 L 259.539062 168.191406 L 186.472656 122.359375 L 261.792969 2.277344 Z M 334.859375 48.109375 "/>
</clipPath>
<clipPath id="clip12">
  <path d="M 261.625 2.171875 L 186.304688 122.253906 L 259.371094 168.085938 L 334.691406 48.003906 Z M 261.625 2.171875 "/>
</clipPath>
<clipPath id="clip13">
  <path d="M 207 49 L 332 49 L 332 134 L 207 134 Z M 207 49 "/>
</clipPath>
<clipPath id="clip14">
  <path d="M 334.859375 61.460938 L 263.863281 168.269531 L 198.90625 125.089844 L 269.898438 18.28125 Z M 334.859375 61.460938 "/>
</clipPath>
<clipPath id="clip15">
  <path d="M 269.773438 18.199219 L 198.777344 125.007812 L 263.738281 168.183594 L 334.730469 61.375 Z M 269.773438 18.199219 "/>
</clipPath>
<clipPath id="clip16">
  <path d="M 216 56 L 338 56 L 338 136 L 216 136 Z M 216 56 "/>
</clipPath>
<clipPath id="clip17">
  <path d="M 340.007812 69.667969 L 270.222656 170.042969 L 209.257812 127.660156 L 279.042969 27.285156 Z M 340.007812 69.667969 "/>
</clipPath>
<clipPath id="clip18">
  <path d="M 278.753906 27.082031 L 208.96875 127.457031 L 269.933594 169.84375 L 339.71875 69.464844 Z M 278.753906 27.082031 "/>
</clipPath>
<clipPath id="clip19">
  <path d="M 82.484375 131.792969 L 200.984375 131.792969 L 200.984375 341.792969 L 82.484375 341.792969 Z M 82.484375 131.792969 "/>
</clipPath>
<clipPath id="clip20">
  <path d="M 175.535156 131.792969 L 294 131.792969 L 294 341.792969 L 175.535156 341.792969 Z M 175.535156 131.792969 "/>
</clipPath>
<clipPath id="clip21">
  <path d="M 104.785156 155.925781 L 196.285156 155.925781 L 196.285156 317.175781 L 104.785156 317.175781 Z M 104.785156 155.925781 "/>
</clipPath>
<clipPath id="clip22">
  <path d="M 180.558594 155.925781 L 271.835938 155.925781 L 271.835938 317.175781 L 180.558594 317.175781 Z M 180.558594 155.925781 "/>
</clipPath>
<clipPath id="clip23">
  <path d="M 119.789062 169.195312 L 196.289062 169.195312 L 196.289062 304.195312 L 119.789062 304.195312 Z M 119.789062 169.195312 "/>
</clipPath>
<clipPath id="clip24">
  <path d="M 180.5625 169.195312 L 256.839844 169.195312 L 256.839844 304.195312 L 180.5625 304.195312 Z M 180.5625 169.195312 "/>
</clipPath>
</defs>
<g id="surface1">
<path style="fill:none;stroke-width:1;stroke-linecap:round;stroke-linejoin:miter;stroke:rgb(100%,100%,100%);stroke-opacity:1;stroke-miterlimit:4;" d="M 0.500015 -0.0000455683 L 7.500016 -0.0000455683 " transform="matrix(0.000000000000002296,37.499998,-37.499998,0.000000000000002296,53.451416,41.600988)"/>
<path style="fill:none;stroke-width:1;stroke-linecap:round;stroke-linejoin:miter;stroke:rgb(100%,100%,100%);stroke-opacity:1;stroke-miterlimit:4;" d="M 0.500015 -0.000000438167 L 7.500016 -0.000000438167 " transform="matrix(0.000000000000002296,37.499998,-37.499998,0.000000000000002296,318.749984,41.600988)"/>
<g clip-path="url(#clip1)" clip-rule="nonzero">
<g clip-path="url(#clip2)" clip-rule="nonzero">
<g clip-path="url(#clip3)" clip-rule="nonzero">
<path style=" stroke:none;fill-rule:nonzero;fill:rgb(100%,100%,100%);fill-opacity:1;" d="M 82.109375 54.390625 C 83.199219 54.375 84.449219 54.398438 85.539062 54.386719 C 86.851562 54.503906 88.226562 54.722656 89.539062 54.839844 L 89.761719 54.972656 C 91.296875 55.222656 92.925781 55.410156 94.78125 55.730469 C 96.316406 55.984375 98.167969 56.304688 99.828125 56.75 C 101.421875 57.097656 102.984375 57.605469 104.382812 58.078125 L 106.105469 58.617188 C 106.804688 58.855469 107.664062 59.125 108.492188 59.558594 C 109.253906 59.890625 110.238281 60.355469 111.222656 60.820312 C 111.664062 61.085938 112.046875 61.253906 112.488281 61.515625 C 112.933594 61.78125 113.375 62.042969 113.917969 62.246094 C 114.902344 62.710938 115.789062 63.238281 116.613281 63.667969 C 118.289062 64.789062 120.027344 66.003906 121.605469 67.183594 C 122.742188 68.097656 123.875 69.015625 124.851562 69.898438 C 125.542969 70.550781 126.171875 71.105469 126.960938 71.695312 C 127.308594 72.019531 127.59375 72.25 128.035156 72.515625 C 128.601562 72.972656 129.171875 73.429688 129.738281 73.890625 C 130.429688 74.542969 131.121094 75.195312 131.75 75.75 L 132.320312 76.207031 L 132.886719 76.664062 C 133.578125 77.316406 134.269531 77.96875 135.023438 78.71875 C 135.652344 79.277344 136.25 79.992188 136.78125 80.609375 L 136.84375 80.707031 C 137.5 81.515625 138.375 82.460938 139.09375 83.371094 C 139.34375 83.757812 139.75 84.183594 140 84.570312 C 140.308594 85.054688 140.78125 85.578125 141.089844 86.0625 C 142.464844 87.785156 143.867188 89.761719 145.355469 92.09375 L 145.605469 92.480469 C 146.722656 94.230469 147.902344 96.074219 149.046875 98.082031 C 149.417969 98.664062 149.691406 99.308594 150.066406 99.890625 C 150.3125 100.28125 150.402344 100.632812 150.652344 101.023438 L 150.898438 101.410156 C 151.332031 102.089844 151.609375 102.738281 152.042969 103.417969 C 152.320312 104.0625 152.65625 104.804688 152.929688 105.449219 C 153.082031 105.898438 153.390625 106.386719 153.542969 106.835938 C 153.753906 107.386719 154.066406 107.871094 154.214844 108.320312 C 154.492188 108.964844 154.863281 109.550781 155.140625 110.195312 C 155.601562 111.132812 155.964844 112.128906 156.328125 113.128906 L 156.628906 114.03125 L 156.84375 114.578125 C 157.265625 115.675781 157.753906 116.867188 158.144531 118.125 C 158.570312 119.21875 158.898438 120.378906 159.351562 121.730469 C 159.652344 122.632812 159.796875 123.5 160.035156 124.304688 C 160.125 124.660156 160.210938 125.011719 160.300781 125.367188 C 160.53125 126.585938 160.921875 127.84375 161.25 129 C 161.425781 129.707031 161.765625 130.449219 161.941406 131.160156 L 162.09375 131.609375 C 162.121094 131.867188 162.242188 132.058594 162.367188 132.253906 C 163.050781 133.324219 164.515625 133.894531 165.738281 133.65625 C 166.058594 133.726562 166.472656 133.734375 166.828125 133.644531 C 168.050781 133.410156 169.375 133.113281 170.792969 132.753906 C 171.402344 132.636719 172.015625 132.519531 172.46875 132.367188 L 172.984375 132.3125 C 173.496094 132.257812 173.949219 132.105469 174.402344 131.953125 C 174.855469 131.800781 175.367188 131.746094 175.980469 131.628906 C 177.105469 131.457031 177.992188 130.476562 178.277344 129.203125 L 178.480469 128.660156 C 178.683594 128.121094 178.632812 127.609375 178.515625 126.996094 L 178.523438 126.582031 C 178.410156 125.96875 178.390625 125.296875 178.277344 124.6875 C 178.160156 124.078125 177.984375 123.371094 177.929688 122.855469 C 177.78125 122.40625 177.664062 121.796875 177.609375 121.28125 L 177.433594 120.574219 C 177.316406 119.964844 177.105469 119.414062 176.953125 118.964844 C 176.925781 118.707031 176.804688 118.515625 176.777344 118.257812 C 176.539062 117.453125 176.296875 116.648438 176.058594 115.84375 C 175.792969 114.78125 175.464844 113.625 175.101562 112.625 C 174.800781 111.722656 174.496094 110.820312 174.195312 109.917969 C 173.769531 108.824219 173.441406 107.664062 173.113281 106.507812 C 172.519531 104.285156 171.472656 102.21875 170.585938 100.1875 L 170.3125 99.539062 C 170.097656 98.992188 169.726562 98.410156 169.511719 97.863281 C 168.902344 96.472656 168.226562 94.988281 167.453125 93.566406 L 167.269531 93.277344 C 166.371094 91.660156 165.511719 89.882812 164.519531 88.328125 C 164.207031 87.84375 163.835938 87.261719 163.527344 86.773438 C 162.90625 85.804688 162.222656 84.734375 161.699219 83.699219 L 161.328125 83.117188 C 160.953125 82.535156 160.679688 81.890625 160.304688 81.308594 C 160.246094 81.210938 160.246094 81.210938 160.183594 81.113281 C 159.6875 80.335938 159.128906 79.460938 158.410156 78.550781 C 157.253906 76.964844 156.066406 75.535156 154.914062 73.945312 L 154.382812 73.328125 C 153.476562 72.125 152.695312 71.121094 151.820312 70.175781 C 151.128906 69.523438 150.535156 68.808594 149.78125 68.058594 L 149.113281 67.664062 C 148.707031 67.238281 148.359375 66.914062 147.953125 66.492188 C 146.667969 65.121094 145.222656 63.722656 143.835938 62.414062 C 142.292969 61.078125 140.75 59.738281 139.207031 58.398438 C 138.925781 58.167969 138.703125 58.035156 138.417969 57.804688 C 134.667969 54.730469 131.574219 52.46875 128.46875 50.621094 C 126.570312 49.371094 124.699219 48.378906 122.890625 47.480469 C 122.445312 47.21875 121.90625 47.015625 121.460938 46.75 C 121.019531 46.488281 120.636719 46.320312 120.195312 46.058594 C 119.210938 45.589844 118.289062 45.222656 117.464844 44.792969 L 117.082031 44.625 L 117.464844 44.792969 C 116.097656 44.160156 114.695312 43.6875 113.394531 43.152344 C 112.691406 42.917969 111.992188 42.679688 111.390625 42.382812 C 109.382812 41.609375 107.28125 40.902344 104.925781 40.21875 C 102.882812 39.605469 100.710938 39.21875 98.21875 38.757812 C 96.625 38.410156 94.511719 38.117188 92.339844 37.726562 C 90.648438 37.441406 88.757812 37.277344 86.453125 37.109375 C 85.140625 36.992188 83.890625 36.96875 82.640625 36.949219 L 81.253906 37.148438 L 80.839844 37.140625 C 80.101562 37.0625 79.332031 37.148438 78.59375 37.070312 C 77.761719 37.054688 76.890625 37.199219 76.058594 37.183594 L 75.703125 37.273438 L 75.03125 37.296875 C 74.097656 37.34375 73.070312 37.453125 72.042969 37.5625 C 71.882812 37.527344 71.785156 37.589844 71.527344 37.617188 C 71.011719 37.671875 70.597656 37.667969 70.144531 37.820312 L 70.046875 37.882812 C 69.433594 38 68.761719 38.019531 68.085938 38.039062 C 66.640625 38.140625 65.355469 38.28125 63.875 38.542969 C 62.90625 38.75 62.003906 39.054688 61.132812 39.199219 C 60.328125 39.441406 59.617188 39.621094 58.75 39.765625 C 57.527344 40 56.328125 40.492188 55.167969 40.824219 L 54.714844 40.976562 C 54.164062 41.191406 53.648438 41.246094 53.101562 41.460938 C 52.035156 41.730469 50.9375 42.15625 49.835938 42.585938 C 49.542969 42.773438 49.289062 42.800781 48.996094 42.988281 C 48.800781 43.113281 48.542969 43.140625 48.347656 43.265625 L 48.089844 43.292969 C 47.734375 43.382812 47.441406 43.570312 47.1875 43.597656 C 45.730469 44.117188 44.242188 44.796875 42.753906 45.472656 C 42.105469 45.75 41.519531 46.125 40.933594 46.5 C 40.738281 46.621094 40.542969 46.746094 40.347656 46.871094 L 40.152344 46.996094 C 40.054688 47.058594 39.957031 47.121094 39.765625 47.246094 C 39.179688 47.621094 38.753906 48.027344 38.292969 48.597656 C 38.0625 48.882812 37.894531 49.261719 37.882812 49.679688 C 37.847656 49.839844 37.75 49.902344 37.8125 49.996094 C 37.742188 50.316406 37.769531 50.574219 37.699219 50.890625 C 37.652344 51.46875 37.804688 51.917969 38.113281 52.40625 C 38.238281 52.597656 38.265625 52.855469 38.292969 53.113281 C 38.382812 53.464844 38.40625 53.722656 38.59375 54.015625 C 38.867188 54.660156 39.046875 55.367188 39.320312 56.011719 L 39.472656 56.464844 C 39.5625 56.816406 39.710938 57.269531 39.898438 57.558594 C 40.023438 57.753906 39.984375 57.914062 40.109375 58.105469 L 40.484375 58.691406 C 40.546875 58.785156 40.570312 59.042969 40.632812 59.140625 C 40.847656 59.6875 40.898438 60.203125 41.210938 60.6875 C 41.707031 61.464844 42.335938 62.019531 43.132812 62.195312 C 43.773438 62.332031 44.351562 62.375 44.996094 62.097656 C 45.253906 62.070312 45.511719 62.042969 45.707031 61.917969 C 46.453125 61.578125 47.097656 61.304688 47.84375 60.964844 C 48.136719 60.777344 48.492188 60.6875 48.882812 60.4375 C 49.980469 60.007812 51.078125 59.578125 52.4375 59.121094 C 53.597656 58.789062 54.796875 58.300781 56.507812 57.753906 C 57.863281 57.296875 59.28125 56.9375 60.605469 56.640625 C 60.957031 56.550781 61.214844 56.523438 61.570312 56.433594 L 63.050781 56.171875 C 64.53125 55.90625 66.011719 55.644531 67.589844 55.320312 C 68.558594 55.113281 69.585938 55.003906 70.617188 54.894531 C 71.644531 54.785156 72.734375 54.769531 73.761719 54.660156 L 74.179688 54.667969 C 76.042969 54.570312 78.160156 54.449219 80.085938 54.449219 C 80.503906 54.457031 81.273438 54.375 82.109375 54.390625 Z M 82.109375 54.390625 "/>
</g>
</g>
</g>
<g clip-path="url(#clip4)" clip-rule="nonzero">
<g clip-path="url(#clip5)" clip-rule="nonzero">
<g clip-path="url(#clip6)" clip-rule="nonzero">
<path style=" stroke:none;fill-rule:nonzero;fill:rgb(100%,100%,100%);fill-opacity:1;" d="M 76.988281 65.867188 C 77.988281 65.820312 79.136719 65.800781 80.136719 65.757812 C 81.34375 65.824219 82.613281 65.980469 83.820312 66.050781 L 84.03125 66.164062 C 85.445312 66.347656 86.949219 66.472656 88.664062 66.707031 C 90.078125 66.890625 91.792969 67.128906 93.328125 67.488281 C 94.804688 67.757812 96.257812 68.175781 97.558594 68.570312 L 99.160156 69.015625 C 99.808594 69.210938 100.609375 69.433594 101.382812 69.804688 C 102.09375 70.085938 103.015625 70.484375 103.933594 70.882812 C 104.351562 71.109375 104.707031 71.253906 105.125 71.480469 C 105.539062 71.710938 105.957031 71.941406 106.460938 72.109375 C 107.378906 72.507812 108.214844 72.964844 108.984375 73.335938 C 110.566406 74.3125 112.203125 75.375 113.695312 76.410156 C 114.773438 77.21875 115.847656 78.027344 116.773438 78.808594 C 117.433594 79.386719 118.03125 79.878906 118.777344 80.398438 C 119.109375 80.6875 119.375 80.886719 119.792969 81.117188 C 120.332031 81.519531 120.867188 81.925781 121.40625 82.328125 C 122.066406 82.90625 122.722656 83.488281 123.320312 83.976562 L 123.859375 84.382812 L 124.398438 84.785156 C 125.054688 85.363281 125.714844 85.945312 126.433594 86.609375 C 127.03125 87.101562 127.605469 87.742188 128.113281 88.292969 L 128.175781 88.378906 C 128.808594 89.105469 129.648438 89.949219 130.339844 90.761719 C 130.582031 91.109375 130.972656 91.488281 131.214844 91.835938 C 131.519531 92.273438 131.96875 92.738281 132.273438 93.175781 C 133.597656 94.71875 134.957031 96.492188 136.410156 98.589844 L 136.652344 98.941406 C 137.742188 100.515625 138.890625 102.175781 140.015625 103.984375 C 140.378906 104.511719 140.65625 105.097656 141.019531 105.621094 C 141.261719 105.96875 141.355469 106.292969 141.597656 106.644531 L 141.839844 106.992188 C 142.265625 107.605469 142.539062 108.191406 142.964844 108.800781 C 143.238281 109.386719 143.578125 110.058594 143.851562 110.644531 C 144.007812 111.054688 144.3125 111.492188 144.464844 111.902344 C 144.679688 112.398438 144.984375 112.835938 145.140625 113.246094 C 145.414062 113.832031 145.777344 114.355469 146.054688 114.941406 C 146.511719 115.789062 146.882812 116.695312 147.253906 117.605469 L 147.5625 118.425781 L 147.78125 118.921875 C 148.210938 119.917969 148.703125 121 149.109375 122.144531 C 149.539062 123.136719 149.882812 124.195312 150.347656 125.421875 C 150.660156 126.242188 150.820312 127.039062 151.070312 127.769531 C 151.164062 128.09375 151.257812 128.414062 151.355469 128.738281 C 151.609375 129.855469 152.015625 130.996094 152.359375 132.050781 C 152.546875 132.699219 152.886719 133.371094 153.074219 134.015625 L 153.230469 134.425781 C 153.261719 134.660156 153.382812 134.835938 153.503906 135.011719 C 154.171875 135.972656 155.535156 136.453125 156.648438 136.199219 C 156.945312 136.253906 157.328125 136.246094 157.648438 136.152344 C 158.761719 135.898438 159.964844 135.582031 161.253906 135.210938 C 161.808594 135.082031 162.367188 134.957031 162.777344 134.800781 L 163.246094 134.734375 C 163.714844 134.667969 164.125 134.515625 164.535156 134.359375 C 164.941406 134.207031 165.414062 134.140625 165.96875 134.011719 C 166.996094 133.820312 167.773438 132.894531 167.984375 131.710938 L 168.152344 131.207031 C 168.320312 130.703125 168.253906 130.230469 168.125 129.675781 L 168.117188 129.292969 C 167.988281 128.734375 167.945312 128.113281 167.820312 127.558594 C 167.691406 127 167.5 126.351562 167.433594 125.882812 C 167.277344 125.472656 167.148438 124.914062 167.082031 124.445312 L 166.894531 123.800781 C 166.765625 123.242188 166.546875 122.742188 166.394531 122.332031 C 166.359375 122.097656 166.238281 121.921875 166.203125 121.6875 C 165.953125 120.957031 165.707031 120.222656 165.457031 119.488281 C 165.171875 118.519531 164.828125 117.464844 164.457031 116.558594 C 164.148438 115.738281 163.835938 114.917969 163.527344 114.097656 C 163.097656 113.101562 162.75 112.046875 162.40625 110.992188 C 161.78125 108.96875 160.742188 107.097656 159.855469 105.253906 L 159.578125 104.671875 C 159.363281 104.171875 159 103.648438 158.785156 103.152344 C 158.171875 101.894531 157.496094 100.546875 156.738281 99.261719 L 156.554688 99 C 155.671875 97.542969 154.816406 95.933594 153.847656 94.535156 C 153.546875 94.097656 153.183594 93.574219 152.878906 93.136719 C 152.273438 92.261719 151.609375 91.300781 151.089844 90.363281 L 150.726562 89.839844 C 150.363281 89.316406 150.085938 88.730469 149.722656 88.207031 C 149.664062 88.117188 149.664062 88.117188 149.601562 88.03125 C 149.117188 87.332031 148.574219 86.542969 147.878906 85.730469 C 146.761719 84.304688 145.621094 83.027344 144.503906 81.601562 L 143.992188 81.046875 C 143.117188 79.972656 142.363281 79.070312 141.523438 78.230469 C 140.867188 77.652344 140.292969 77.011719 139.574219 76.34375 L 138.949219 76 C 138.558594 75.625 138.230469 75.335938 137.839844 74.957031 C 136.609375 73.742188 135.230469 72.496094 133.914062 71.339844 C 132.449219 70.152344 130.984375 68.96875 129.519531 67.785156 C 129.25 67.582031 129.042969 67.46875 128.773438 67.265625 C 125.21875 64.550781 122.292969 62.566406 119.378906 60.964844 C 117.589844 59.871094 115.835938 59.015625 114.144531 58.246094 C 113.726562 58.019531 113.222656 57.851562 112.808594 57.621094 C 112.390625 57.390625 112.035156 57.25 111.617188 57.019531 C 110.699219 56.625 109.835938 56.3125 109.066406 55.941406 L 108.710938 55.800781 L 109.066406 55.941406 C 107.789062 55.402344 106.484375 55.011719 105.269531 54.558594 C 104.617188 54.363281 103.96875 54.167969 103.402344 53.914062 C 101.535156 53.265625 99.582031 52.679688 97.390625 52.125 C 95.5 51.625 93.492188 51.332031 91.1875 50.988281 C 89.710938 50.714844 87.761719 50.511719 85.753906 50.21875 C 84.191406 50.011719 82.453125 49.921875 80.332031 49.835938 C 79.121094 49.769531 77.976562 49.785156 76.828125 49.804688 L 75.566406 50.03125 L 75.183594 50.039062 C 74.503906 49.992188 73.800781 50.089844 73.121094 50.042969 C 72.355469 50.054688 71.566406 50.214844 70.800781 50.226562 L 70.476562 50.320312 L 69.859375 50.359375 C 69.007812 50.433594 68.066406 50.566406 67.128906 50.699219 C 66.980469 50.671875 66.894531 50.734375 66.660156 50.765625 C 66.1875 50.832031 65.804688 50.839844 65.398438 50.992188 L 65.308594 51.054688 C 64.753906 51.179688 64.136719 51.21875 63.519531 51.257812 C 62.195312 51.398438 61.019531 51.566406 59.671875 51.851562 C 58.792969 52.074219 57.976562 52.382812 57.183594 52.542969 C 56.453125 52.789062 55.808594 52.976562 55.015625 53.136719 C 53.902344 53.390625 52.820312 53.878906 51.769531 54.222656 L 51.359375 54.375 C 50.863281 54.589844 50.394531 54.65625 49.898438 54.871094 C 48.929688 55.152344 47.9375 55.582031 46.945312 56.007812 C 46.683594 56.191406 46.449219 56.222656 46.1875 56.40625 C 46.011719 56.527344 45.777344 56.558594 45.601562 56.679688 L 45.367188 56.710938 C 45.046875 56.804688 44.785156 56.988281 44.550781 57.019531 C 43.234375 57.542969 41.894531 58.214844 40.550781 58.882812 C 39.96875 59.160156 39.445312 59.519531 38.921875 59.882812 C 38.75 60.003906 38.574219 60.125 38.398438 60.246094 L 38.226562 60.367188 C 38.136719 60.425781 38.050781 60.488281 37.875 60.609375 C 37.355469 60.96875 36.976562 61.359375 36.578125 61.894531 C 36.375 62.164062 36.234375 62.519531 36.242188 62.902344 C 36.214844 63.050781 36.128906 63.113281 36.1875 63.199219 C 36.136719 63.496094 36.171875 63.730469 36.117188 64.027344 C 36.097656 64.558594 36.253906 64.964844 36.554688 65.402344 C 36.675781 65.578125 36.710938 65.8125 36.746094 66.050781 C 36.839844 66.371094 36.871094 66.605469 37.054688 66.871094 C 37.332031 67.453125 37.519531 68.101562 37.796875 68.683594 L 37.949219 69.09375 C 38.046875 69.417969 38.199219 69.828125 38.382812 70.089844 C 38.503906 70.265625 38.476562 70.414062 38.597656 70.589844 L 38.71875 70.761719 L 38.960938 71.113281 C 39.023438 71.199219 39.054688 71.433594 39.117188 71.523438 C 39.332031 72.019531 39.398438 72.492188 39.703125 72.929688 C 40.1875 73.628906 40.785156 74.117188 41.523438 74.253906 C 42.113281 74.363281 42.644531 74.382812 43.230469 74.109375 C 43.464844 74.074219 43.699219 74.042969 43.871094 73.921875 C 44.542969 73.585938 45.128906 73.3125 45.796875 72.976562 C 46.058594 72.796875 46.382812 72.703125 46.730469 72.460938 C 47.722656 72.03125 48.714844 71.601562 49.945312 71.140625 C 50.996094 70.800781 52.078125 70.308594 53.625 69.753906 C 54.855469 69.292969 56.140625 68.917969 57.34375 68.601562 C 57.664062 68.507812 57.902344 68.476562 58.222656 68.382812 L 59.570312 68.09375 C 60.921875 67.808594 62.269531 67.519531 63.703125 67.171875 C 64.582031 66.953125 65.523438 66.820312 66.464844 66.6875 C 67.402344 66.554688 68.402344 66.507812 69.34375 66.375 L 69.726562 66.367188 C 71.429688 66.222656 73.371094 66.042969 75.136719 65.984375 C 75.515625 65.980469 76.222656 65.878906 76.988281 65.867188 Z M 76.988281 65.867188 "/>
</g>
</g>
</g>
<g clip-path="url(#clip7)" clip-rule="nonzero">
<g clip-path="url(#clip8)" clip-rule="nonzero">
<g clip-path="url(#clip9)" clip-rule="nonzero">
<path style=" stroke:none;fill-rule:nonzero;fill:rgb(100%,100%,100%);fill-opacity:1;" d="M 82.640625 72.640625 C 83.5 72.660156 84.488281 72.710938 85.351562 72.730469 C 86.386719 72.863281 87.46875 73.070312 88.503906 73.203125 L 88.675781 73.3125 C 89.882812 73.554688 91.167969 73.75 92.625 74.054688 C 93.832031 74.296875 95.289062 74.601562 96.589844 75 C 97.84375 75.320312 99.0625 75.765625 100.160156 76.179688 L 101.507812 76.65625 C 102.054688 76.863281 102.730469 77.101562 103.371094 77.464844 C 103.964844 77.75 104.730469 78.144531 105.5 78.542969 C 105.84375 78.765625 106.140625 78.90625 106.484375 79.128906 C 106.828125 79.347656 107.171875 79.570312 107.59375 79.746094 C 108.363281 80.140625 109.050781 80.582031 109.691406 80.949219 C 110.988281 81.878906 112.335938 82.890625 113.554688 83.871094 C 114.429688 84.628906 115.304688 85.382812 116.054688 86.109375 C 116.585938 86.644531 117.070312 87.101562 117.679688 87.59375 C 117.945312 87.859375 118.164062 88.050781 118.507812 88.273438 C 118.945312 88.648438 119.382812 89.027344 119.820312 89.40625 C 120.351562 89.945312 120.882812 90.480469 121.367188 90.9375 L 122.242188 91.695312 C 122.773438 92.230469 123.304688 92.765625 123.882812 93.382812 C 124.367188 93.839844 124.816406 94.421875 125.222656 94.925781 L 125.269531 95.003906 C 125.769531 95.667969 126.441406 96.4375 126.988281 97.179688 C 127.171875 97.492188 127.484375 97.839844 127.671875 98.15625 C 127.90625 98.546875 128.265625 98.972656 128.5 99.367188 C 129.542969 100.769531 130.601562 102.375 131.726562 104.261719 L 131.910156 104.578125 C 132.753906 105.992188 133.640625 107.488281 134.496094 109.109375 C 134.777344 109.582031 134.976562 110.097656 135.257812 110.570312 C 135.445312 110.886719 135.507812 111.167969 135.695312 111.484375 L 135.878906 111.796875 C 136.207031 112.347656 136.410156 112.867188 136.738281 113.417969 C 136.9375 113.9375 137.1875 114.535156 137.386719 115.054688 C 137.496094 115.414062 137.730469 115.808594 137.839844 116.171875 C 137.992188 116.609375 138.226562 117.003906 138.335938 117.363281 C 138.535156 117.882812 138.816406 118.355469 139.019531 118.875 C 139.359375 119.628906 139.625 120.429688 139.886719 121.234375 L 140.105469 121.957031 L 140.257812 122.394531 C 140.570312 123.277344 140.925781 124.234375 141.203125 125.238281 C 141.511719 126.121094 141.746094 127.046875 142.070312 128.132812 C 142.285156 128.855469 142.378906 129.546875 142.546875 130.1875 C 142.609375 130.472656 142.671875 130.753906 142.730469 131.039062 C 142.882812 132.011719 143.164062 133.015625 143.394531 133.941406 C 143.515625 134.507812 143.765625 135.105469 143.886719 135.671875 L 143.996094 136.03125 C 144.011719 136.238281 144.105469 136.394531 144.199219 136.550781 C 144.710938 137.417969 145.855469 137.910156 146.828125 137.757812 C 147.078125 137.820312 147.410156 137.839844 147.691406 137.777344 C 148.664062 137.625 149.714844 137.425781 150.847656 137.179688 C 151.332031 137.105469 151.820312 137.027344 152.179688 136.921875 L 152.589844 136.890625 C 152.996094 136.863281 153.359375 136.753906 153.71875 136.644531 C 154.082031 136.539062 154.488281 136.507812 154.976562 136.433594 C 155.867188 136.328125 156.59375 135.578125 156.847656 134.574219 L 157.023438 134.152344 C 157.199219 133.730469 157.167969 133.320312 157.089844 132.832031 L 157.109375 132.503906 C 157.03125 132.015625 157.035156 131.484375 156.957031 130.996094 C 156.882812 130.511719 156.757812 129.945312 156.730469 129.535156 C 156.621094 129.175781 156.542969 128.6875 156.515625 128.28125 L 156.390625 127.714844 C 156.316406 127.226562 156.160156 126.789062 156.050781 126.425781 C 156.039062 126.222656 155.945312 126.066406 155.929688 125.863281 C 155.757812 125.21875 155.589844 124.574219 155.417969 123.929688 C 155.234375 123.082031 155.003906 122.152344 154.742188 121.351562 C 154.523438 120.628906 154.308594 119.90625 154.089844 119.183594 C 153.78125 118.304688 153.550781 117.375 153.316406 116.449219 C 152.902344 114.675781 152.125 113.007812 151.472656 111.371094 L 151.273438 110.855469 C 151.117188 110.414062 150.835938 109.941406 150.679688 109.5 C 150.230469 108.386719 149.734375 107.191406 149.160156 106.042969 L 149.019531 105.804688 C 148.351562 104.5 147.710938 103.070312 146.964844 101.8125 C 146.730469 101.417969 146.453125 100.945312 146.21875 100.550781 C 145.75 99.765625 145.238281 98.898438 144.847656 98.066406 L 144.566406 97.59375 C 144.289062 97.121094 144.085938 96.601562 143.804688 96.132812 C 143.757812 96.050781 143.757812 96.050781 143.710938 95.972656 C 143.339844 95.34375 142.917969 94.636719 142.371094 93.894531 C 141.5 92.605469 140.59375 91.441406 139.722656 90.148438 L 139.316406 89.644531 C 138.628906 88.667969 138.035156 87.847656 137.367188 87.078125 C 136.835938 86.542969 136.382812 85.957031 135.804688 85.34375 L 135.289062 85.011719 C 134.976562 84.664062 134.710938 84.398438 134.398438 84.050781 C 133.414062 82.929688 132.304688 81.78125 131.246094 80.707031 C 130.058594 79.605469 128.871094 78.5 127.683594 77.394531 C 127.464844 77.207031 127.292969 77.097656 127.074219 76.90625 C 124.179688 74.367188 121.789062 72.488281 119.378906 70.9375 C 117.910156 69.894531 116.457031 69.054688 115.046875 68.296875 C 114.703125 68.074219 114.28125 67.898438 113.9375 67.679688 C 113.59375 67.457031 113.292969 67.316406 112.949219 67.09375 C 112.183594 66.699219 111.464844 66.378906 110.820312 66.015625 L 110.523438 65.875 L 110.820312 66.015625 C 109.757812 65.476562 108.660156 65.0625 107.644531 64.605469 C 107.097656 64.398438 106.546875 64.191406 106.078125 63.9375 C 104.511719 63.269531 102.867188 62.652344 101.019531 62.046875 C 99.421875 61.503906 97.714844 61.132812 95.753906 60.703125 C 94.503906 60.382812 92.839844 60.089844 91.132812 59.722656 C 89.800781 59.449219 88.3125 59.269531 86.492188 59.070312 C 85.457031 58.941406 84.46875 58.890625 83.480469 58.835938 L 82.382812 58.957031 L 82.054688 58.941406 C 81.472656 58.859375 80.863281 58.902344 80.28125 58.820312 C 79.625 58.785156 78.933594 58.878906 78.273438 58.84375 L 77.992188 58.902344 L 77.457031 58.902344 C 76.722656 58.914062 75.90625 58.972656 75.089844 59.03125 C 74.964844 59 74.886719 59.046875 74.683594 59.058594 C 74.273438 59.089844 73.945312 59.074219 73.582031 59.179688 L 73.503906 59.226562 C 73.019531 59.304688 72.484375 59.300781 71.953125 59.296875 C 70.804688 59.339844 69.785156 59.414062 68.609375 59.578125 C 67.839844 59.71875 67.117188 59.933594 66.425781 60.023438 C 65.785156 60.195312 65.21875 60.316406 64.527344 60.40625 C 63.554688 60.558594 62.597656 60.914062 61.671875 61.144531 L 61.308594 61.253906 C 60.867188 61.410156 60.460938 61.4375 60.019531 61.59375 C 59.171875 61.777344 58.292969 62.085938 57.414062 62.394531 C 57.179688 62.535156 56.972656 62.550781 56.738281 62.691406 C 56.582031 62.785156 56.378906 62.800781 56.21875 62.894531 L 56.015625 62.90625 C 55.734375 62.96875 55.496094 63.109375 55.292969 63.125 C 54.132812 63.496094 52.9375 63.992188 51.742188 64.488281 C 51.222656 64.6875 50.753906 64.96875 50.28125 65.25 C 50.125 65.34375 49.964844 65.433594 49.808594 65.527344 L 49.652344 65.621094 C 49.574219 65.667969 49.496094 65.714844 49.335938 65.808594 C 48.867188 66.089844 48.519531 66.402344 48.140625 66.839844 C 47.953125 67.058594 47.808594 67.355469 47.792969 67.683594 C 47.761719 67.808594 47.683594 67.855469 47.730469 67.933594 C 47.664062 68.183594 47.679688 68.390625 47.617188 68.640625 C 47.566406 69.09375 47.675781 69.457031 47.910156 69.851562 C 48.003906 70.007812 48.015625 70.210938 48.03125 70.414062 C 48.09375 70.699219 48.109375 70.902344 48.25 71.136719 C 48.449219 71.65625 48.574219 72.222656 48.773438 72.742188 L 48.882812 73.101562 C 48.945312 73.386719 49.054688 73.746094 49.191406 73.984375 C 49.285156 74.140625 49.253906 74.265625 49.347656 74.421875 L 49.441406 74.582031 L 49.628906 74.894531 C 49.675781 74.972656 49.691406 75.175781 49.738281 75.257812 C 49.890625 75.695312 49.921875 76.105469 50.15625 76.496094 C 50.527344 77.128906 51.011719 77.585938 51.640625 77.746094 C 52.140625 77.871094 52.597656 77.921875 53.113281 77.71875 C 53.316406 77.707031 53.523438 77.691406 53.679688 77.597656 C 54.277344 77.351562 54.792969 77.148438 55.390625 76.898438 C 55.628906 76.761719 55.910156 76.699219 56.226562 76.511719 C 57.105469 76.203125 57.984375 75.894531 59.066406 75.570312 C 59.996094 75.339844 60.953125 74.980469 62.320312 74.597656 C 63.402344 74.273438 64.53125 74.027344 65.585938 73.828125 C 65.867188 73.765625 66.070312 73.75 66.355469 73.691406 L 67.53125 73.523438 C 68.707031 73.355469 69.886719 73.191406 71.140625 72.976562 C 71.910156 72.839844 72.726562 72.78125 73.542969 72.722656 C 74.359375 72.664062 75.21875 72.683594 76.035156 72.625 L 76.363281 72.640625 C 77.839844 72.617188 79.519531 72.578125 81.039062 72.632812 C 81.367188 72.648438 81.980469 72.605469 82.640625 72.640625 Z M 82.640625 72.640625 "/>
</g>
</g>
</g>
<g clip-path="url(#clip10)" clip-rule="nonzero">
<g clip-path="url(#clip11)" clip-rule="nonzero">
<g clip-path="url(#clip12)" clip-rule="nonzero">
<path style=" stroke:none;fill-rule:nonzero;fill:rgb(100%,100%,100%);fill-opacity:1;" d="M 288.628906 52.59375 C 287.574219 52.59375 286.363281 52.628906 285.304688 52.628906 C 284.035156 52.761719 282.703125 52.988281 281.433594 53.117188 L 281.21875 53.25 C 279.734375 53.511719 278.15625 53.714844 276.363281 54.046875 C 274.878906 54.308594 273.082031 54.640625 271.480469 55.09375 C 269.933594 55.453125 268.425781 55.964844 267.070312 56.4375 L 265.40625 56.984375 C 264.730469 57.222656 263.898438 57.496094 263.101562 57.925781 C 262.363281 58.257812 261.414062 58.722656 260.460938 59.1875 C 260.03125 59.449219 259.664062 59.617188 259.234375 59.878906 C 258.808594 60.140625 258.378906 60.398438 257.855469 60.601562 C 256.90625 61.066406 256.046875 61.589844 255.25 62.019531 C 253.632812 63.125 251.957031 64.324219 250.433594 65.492188 C 249.335938 66.394531 248.242188 67.300781 247.300781 68.167969 C 246.632812 68.808594 246.027344 69.355469 245.265625 69.941406 C 244.929688 70.261719 244.65625 70.488281 244.230469 70.75 C 243.683594 71.199219 243.132812 71.652344 242.585938 72.105469 C 241.917969 72.746094 241.253906 73.390625 240.644531 73.9375 L 240.097656 74.386719 L 239.550781 74.839844 C 238.882812 75.484375 238.214844 76.125 237.488281 76.863281 C 236.882812 77.410156 236.308594 78.109375 235.796875 78.71875 L 235.738281 78.8125 C 235.105469 79.609375 234.261719 80.539062 233.570312 81.429688 C 233.328125 81.808594 232.9375 82.226562 232.699219 82.605469 C 232.398438 83.082031 231.945312 83.59375 231.648438 84.070312 C 230.324219 85.757812 228.976562 87.695312 227.542969 89.980469 L 227.304688 90.359375 C 226.230469 92.074219 225.097656 93.882812 224 95.84375 C 223.640625 96.414062 223.378906 97.046875 223.019531 97.617188 C 222.78125 97.996094 222.695312 98.339844 222.457031 98.722656 L 222.21875 99.101562 C 221.800781 99.769531 221.539062 100.398438 221.121094 101.066406 C 220.855469 101.695312 220.535156 102.421875 220.269531 103.050781 C 220.125 103.492188 219.828125 103.964844 219.683594 104.40625 C 219.480469 104.941406 219.183594 105.417969 219.039062 105.859375 C 218.773438 106.488281 218.417969 107.058594 218.152344 107.6875 C 217.710938 108.605469 217.363281 109.578125 217.015625 110.554688 L 216.730469 111.433594 L 216.523438 111.96875 C 216.117188 113.039062 215.652344 114.207031 215.277344 115.429688 C 214.871094 116.5 214.558594 117.632812 214.128906 118.949219 C 213.839844 119.832031 213.707031 120.675781 213.476562 121.460938 C 213.394531 121.804688 213.308594 122.148438 213.226562 122.496094 C 213.007812 123.683594 212.636719 124.910156 212.324219 126.039062 C 212.152344 126.730469 211.832031 127.453125 211.664062 128.144531 L 211.519531 128.582031 C 211.492188 128.832031 211.375 129.023438 211.253906 129.214844 C 210.597656 130.261719 209.183594 130.832031 207.996094 130.617188 C 207.6875 130.6875 207.285156 130.703125 206.941406 130.617188 C 205.753906 130.40625 204.472656 130.132812 203.097656 129.796875 C 202.503906 129.691406 201.910156 129.585938 201.472656 129.441406 L 200.972656 129.394531 C 200.476562 129.347656 200.035156 129.203125 199.597656 129.0625 C 199.160156 128.917969 198.660156 128.871094 198.066406 128.765625 C 196.976562 128.609375 196.113281 127.671875 195.832031 126.433594 L 195.632812 125.910156 C 195.433594 125.386719 195.480469 124.886719 195.589844 124.292969 L 195.578125 123.890625 C 195.6875 123.292969 195.703125 122.640625 195.8125 122.046875 C 195.921875 121.453125 196.089844 120.761719 196.136719 120.261719 C 196.28125 119.824219 196.390625 119.226562 196.441406 118.726562 L 196.609375 118.039062 C 196.71875 117.445312 196.921875 116.910156 197.066406 116.46875 C 197.089844 116.21875 197.207031 116.027344 197.234375 115.777344 C 197.460938 114.992188 197.691406 114.210938 197.917969 113.425781 C 198.171875 112.390625 198.484375 111.261719 198.832031 110.285156 C 199.117188 109.40625 199.40625 108.523438 199.695312 107.644531 C 200.101562 106.574219 200.414062 105.445312 200.726562 104.316406 C 201.292969 102.148438 202.296875 100.128906 203.144531 98.140625 L 203.410156 97.511719 C 203.613281 96.976562 203.96875 96.40625 204.175781 95.871094 C 204.761719 94.515625 205.40625 93.0625 206.148438 91.671875 L 206.324219 91.386719 C 207.1875 89.804688 208.011719 88.070312 208.964844 86.546875 C 209.265625 86.070312 209.621094 85.5 209.921875 85.023438 C 210.519531 84.074219 211.175781 83.027344 211.675781 82.015625 L 212.035156 81.445312 C 212.390625 80.875 212.65625 80.242188 213.011719 79.671875 C 213.074219 79.578125 213.074219 79.578125 213.132812 79.484375 C 213.609375 78.722656 214.148438 77.863281 214.839844 76.972656 C 215.949219 75.414062 217.09375 74.011719 218.203125 72.453125 L 218.714844 71.847656 C 219.585938 70.667969 220.335938 69.683594 221.183594 68.753906 C 221.847656 68.113281 222.421875 67.410156 223.148438 66.671875 L 223.789062 66.28125 C 224.183594 65.863281 224.515625 65.542969 224.910156 65.128906 C 226.148438 63.785156 227.542969 62.402344 228.878906 61.117188 C 230.367188 59.796875 231.855469 58.480469 233.34375 57.160156 C 233.617188 56.933594 233.832031 56.800781 234.105469 56.574219 C 237.722656 53.542969 240.710938 51.304688 243.707031 49.472656 C 245.539062 48.238281 247.347656 47.25 249.097656 46.359375 C 249.523438 46.097656 250.046875 45.894531 250.476562 45.632812 C 250.902344 45.371094 251.273438 45.203125 251.699219 44.941406 C 252.652344 44.476562 253.542969 44.109375 254.339844 43.679688 L 254.710938 43.515625 L 254.339844 43.679688 C 255.660156 43.050781 257.015625 42.574219 258.273438 42.039062 C 258.953125 41.800781 259.628906 41.5625 260.214844 41.265625 C 262.152344 40.492188 264.183594 39.777344 266.464844 39.089844 C 268.4375 38.46875 270.539062 38.066406 272.953125 37.589844 C 274.496094 37.234375 276.539062 36.921875 278.640625 36.519531 C 280.28125 36.21875 282.109375 36.042969 284.339844 35.851562 C 285.613281 35.71875 286.824219 35.683594 288.035156 35.648438 L 289.375 35.828125 L 289.777344 35.816406 C 290.492188 35.730469 291.238281 35.800781 291.953125 35.71875 C 292.757812 35.695312 293.601562 35.824219 294.410156 35.800781 L 294.753906 35.886719 L 295.40625 35.898438 C 296.308594 35.933594 297.304688 36.027344 298.300781 36.121094 C 298.457031 36.085938 298.550781 36.144531 298.800781 36.167969 C 299.296875 36.21875 299.703125 36.207031 300.140625 36.347656 L 300.234375 36.40625 C 300.828125 36.515625 301.480469 36.527344 302.132812 36.539062 C 303.535156 36.621094 304.78125 36.738281 306.214844 36.976562 C 307.152344 37.167969 308.03125 37.453125 308.875 37.582031 C 309.65625 37.808594 310.34375 37.976562 311.1875 38.105469 C 312.375 38.320312 313.535156 38.785156 314.660156 39.09375 L 315.101562 39.234375 C 315.632812 39.4375 316.132812 39.484375 316.664062 39.6875 C 317.699219 39.9375 318.765625 40.339844 319.832031 40.746094 C 320.117188 40.921875 320.367188 40.945312 320.648438 41.125 C 320.839844 41.242188 321.089844 41.265625 321.277344 41.386719 L 321.527344 41.410156 C 321.871094 41.492188 322.15625 41.671875 322.40625 41.695312 C 323.816406 42.183594 325.261719 42.824219 326.707031 43.464844 C 327.335938 43.726562 327.90625 44.085938 328.472656 44.441406 C 328.664062 44.558594 328.851562 44.679688 329.042969 44.796875 L 329.230469 44.917969 C 329.328125 44.976562 329.421875 45.035156 329.609375 45.15625 C 330.179688 45.511719 330.59375 45.902344 331.042969 46.449219 C 331.265625 46.722656 331.433594 47.09375 331.441406 47.496094 C 331.476562 47.652344 331.574219 47.710938 331.511719 47.804688 C 331.582031 48.117188 331.558594 48.363281 331.628906 48.675781 C 331.675781 49.234375 331.53125 49.671875 331.230469 50.148438 C 331.113281 50.339844 331.089844 50.589844 331.0625 50.839844 C 330.980469 51.183594 330.953125 51.433594 330.777344 51.71875 C 330.511719 52.347656 330.34375 53.039062 330.082031 53.667969 L 329.9375 54.109375 C 329.851562 54.453125 329.707031 54.894531 329.527344 55.179688 C 329.410156 55.371094 329.445312 55.523438 329.324219 55.714844 L 329.207031 55.90625 L 329.085938 56.09375 L 328.96875 56.285156 C 328.90625 56.378906 328.882812 56.628906 328.824219 56.726562 C 328.621094 57.261719 328.570312 57.761719 328.273438 58.234375 C 327.796875 58.996094 327.1875 59.542969 326.414062 59.722656 C 325.796875 59.867188 325.238281 59.914062 324.609375 59.652344 C 324.363281 59.628906 324.113281 59.605469 323.921875 59.484375 C 323.199219 59.164062 322.570312 58.902344 321.847656 58.582031 C 321.566406 58.402344 321.21875 58.320312 320.839844 58.082031 C 319.773438 57.679688 318.707031 57.273438 317.390625 56.847656 C 316.265625 56.539062 315.101562 56.074219 313.441406 55.5625 C 312.125 55.136719 310.75 54.800781 309.46875 54.527344 C 309.125 54.445312 308.875 54.421875 308.53125 54.339844 L 307.097656 54.101562 C 305.660156 53.863281 304.226562 53.625 302.695312 53.328125 C 301.757812 53.140625 300.761719 53.042969 299.765625 52.949219 C 298.765625 52.855469 297.710938 52.855469 296.714844 52.757812 L 296.308594 52.769531 C 294.503906 52.699219 292.453125 52.605469 290.589844 52.628906 C 290.183594 52.640625 289.4375 52.570312 288.628906 52.59375 Z M 288.628906 52.59375 "/>
</g>
</g>
</g>
<g clip-path="url(#clip13)" clip-rule="nonzero">
<g clip-path="url(#clip14)" clip-rule="nonzero">
<g clip-path="url(#clip15)" clip-rule="nonzero">
<path style=" stroke:none;fill-rule:nonzero;fill:rgb(100%,100%,100%);fill-opacity:1;" d="M 292.976562 64.433594 C 292.019531 64.40625 290.925781 64.410156 289.96875 64.386719 C 288.816406 64.476562 287.609375 64.648438 286.457031 64.738281 L 286.261719 64.851562 C 284.914062 65.050781 283.480469 65.199219 281.847656 65.457031 C 280.5 65.65625 278.871094 65.917969 277.410156 66.289062 C 276.003906 66.574219 274.628906 67 273.390625 67.398438 L 271.871094 67.855469 C 271.253906 68.054688 270.496094 68.28125 269.765625 68.652344 C 269.089844 68.933594 268.21875 69.332031 267.347656 69.730469 C 266.953125 69.957031 266.617188 70.097656 266.222656 70.324219 C 265.828125 70.550781 265.4375 70.777344 264.957031 70.945312 C 264.085938 71.34375 263.300781 71.796875 262.570312 72.164062 C 261.078125 73.128906 259.535156 74.175781 258.128906 75.191406 C 257.117188 75.984375 256.105469 76.777344 255.230469 77.539062 C 254.613281 78.105469 254.050781 78.585938 253.347656 79.09375 C 253.039062 79.375 252.785156 79.574219 252.394531 79.800781 C 251.886719 80.195312 251.378906 80.59375 250.875 80.988281 C 250.257812 81.554688 249.636719 82.117188 249.074219 82.597656 L 248.570312 82.996094 L 248.0625 83.390625 C 247.445312 83.957031 246.824219 84.519531 246.152344 85.171875 C 245.589844 85.652344 245.054688 86.269531 244.578125 86.808594 L 244.519531 86.890625 C 243.929688 87.597656 243.144531 88.417969 242.496094 89.207031 C 242.269531 89.546875 241.90625 89.914062 241.679688 90.25 C 241.398438 90.675781 240.976562 91.125 240.695312 91.550781 C 239.457031 93.046875 238.191406 94.765625 236.84375 96.796875 L 236.617188 97.136719 C 235.605469 98.660156 234.535156 100.269531 233.496094 102.015625 C 233.15625 102.523438 232.90625 103.089844 232.566406 103.597656 C 232.34375 103.933594 232.257812 104.246094 232.03125 104.582031 L 231.808594 104.921875 C 231.414062 105.515625 231.160156 106.078125 230.765625 106.671875 C 230.511719 107.234375 230.203125 107.882812 229.949219 108.445312 C 229.808594 108.839844 229.527344 109.265625 229.386719 109.660156 C 229.191406 110.136719 228.910156 110.5625 228.769531 110.957031 C 228.515625 111.519531 228.179688 112.027344 227.925781 112.589844 C 227.503906 113.410156 227.164062 114.28125 226.828125 115.15625 L 226.546875 115.945312 L 226.347656 116.425781 C 225.953125 117.382812 225.503906 118.425781 225.136719 119.523438 C 224.742188 120.484375 224.433594 121.496094 224.011719 122.679688 C 223.730469 123.46875 223.589844 124.230469 223.363281 124.933594 C 223.28125 125.246094 223.195312 125.554688 223.109375 125.863281 C 222.886719 126.9375 222.519531 128.035156 222.210938 129.050781 C 222.039062 129.667969 221.730469 130.316406 221.5625 130.9375 L 221.421875 131.332031 C 221.394531 131.558594 221.28125 131.726562 221.167969 131.894531 C 220.550781 132.828125 219.257812 133.308594 218.1875 133.085938 C 217.90625 133.144531 217.542969 133.144531 217.234375 133.0625 C 216.164062 132.839844 215.015625 132.5625 213.777344 132.230469 C 213.242188 132.121094 212.710938 132.007812 212.316406 131.871094 L 211.867188 131.816406 C 211.417969 131.761719 211.023438 131.621094 210.632812 131.480469 C 210.238281 131.34375 209.789062 131.289062 209.253906 131.175781 C 208.269531 131.011719 207.511719 130.140625 207.289062 129.015625 L 207.121094 128.539062 C 206.953125 128.058594 207.007812 127.609375 207.121094 127.074219 L 207.121094 126.707031 C 207.234375 126.171875 207.265625 125.582031 207.375 125.046875 C 207.488281 124.511719 207.660156 123.890625 207.714844 123.441406 C 207.855469 123.046875 207.96875 122.511719 208.023438 122.0625 L 208.195312 121.441406 C 208.308594 120.90625 208.503906 120.425781 208.644531 120.03125 C 208.671875 119.808594 208.785156 119.636719 208.8125 119.414062 C 209.039062 118.707031 209.265625 118.003906 209.488281 117.300781 C 209.742188 116.371094 210.050781 115.355469 210.390625 114.480469 C 210.671875 113.691406 210.953125 112.902344 211.234375 112.113281 C 211.628906 111.15625 211.9375 110.140625 212.25 109.128906 C 212.8125 107.183594 213.769531 105.378906 214.585938 103.601562 L 214.839844 103.039062 C 215.035156 102.558594 215.371094 102.050781 215.570312 101.574219 C 216.132812 100.359375 216.75 99.0625 217.453125 97.824219 L 217.625 97.570312 C 218.4375 96.160156 219.226562 94.609375 220.128906 93.253906 C 220.410156 92.832031 220.746094 92.324219 221.027344 91.898438 C 221.589844 91.054688 222.207031 90.121094 222.6875 89.21875 L 223.023438 88.710938 C 223.363281 88.203125 223.617188 87.640625 223.953125 87.132812 C 224.007812 87.046875 224.007812 87.046875 224.066406 86.964844 C 224.515625 86.285156 225.023438 85.523438 225.667969 84.734375 C 226.710938 83.351562 227.777344 82.109375 228.816406 80.726562 L 229.296875 80.191406 C 230.113281 79.144531 230.816406 78.269531 231.601562 77.453125 C 232.222656 76.886719 232.753906 76.265625 233.429688 75.617188 L 234.019531 75.277344 C 234.386719 74.910156 234.695312 74.625 235.058594 74.257812 C 236.214844 73.074219 237.507812 71.859375 238.742188 70.726562 C 240.121094 69.570312 241.5 68.410156 242.875 67.25 C 243.128906 67.054688 243.328125 66.941406 243.578125 66.742188 C 246.925781 64.085938 249.679688 62.132812 252.433594 60.546875 C 254.121094 59.472656 255.78125 58.621094 257.382812 57.855469 C 257.773438 57.628906 258.253906 57.460938 258.644531 57.234375 C 259.039062 57.007812 259.378906 56.863281 259.769531 56.636719 C 260.640625 56.242188 261.457031 55.929688 262.1875 55.558594 L 262.523438 55.417969 L 262.1875 55.558594 C 263.398438 55.023438 264.632812 54.625 265.785156 54.167969 C 266.402344 53.96875 267.023438 53.769531 267.554688 53.515625 C 269.328125 52.863281 271.179688 52.265625 273.261719 51.695312 C 275.058594 51.179688 276.96875 50.863281 279.164062 50.492188 C 280.566406 50.207031 282.421875 49.972656 284.332031 49.65625 C 285.824219 49.425781 287.480469 49.308594 289.503906 49.1875 C 290.65625 49.101562 291.75 49.097656 292.847656 49.09375 L 294.054688 49.285156 L 294.421875 49.285156 C 295.066406 49.226562 295.742188 49.308594 296.386719 49.25 C 297.117188 49.246094 297.875 49.386719 298.605469 49.382812 L 298.914062 49.464844 L 299.507812 49.492188 C 300.320312 49.546875 301.21875 49.65625 302.117188 49.765625 C 302.257812 49.734375 302.34375 49.792969 302.566406 49.820312 C 303.019531 49.875 303.382812 49.875 303.777344 50.011719 L 303.859375 50.070312 C 304.394531 50.179688 304.984375 50.207031 305.574219 50.230469 C 306.839844 50.339844 307.960938 50.476562 309.253906 50.726562 C 310.097656 50.917969 310.882812 51.199219 311.644531 51.335938 C 312.34375 51.558594 312.964844 51.726562 313.722656 51.863281 C 314.789062 52.085938 315.828125 52.53125 316.839844 52.839844 L 317.234375 52.976562 C 317.710938 53.171875 318.160156 53.226562 318.636719 53.421875 C 319.566406 53.671875 320.519531 54.0625 321.476562 54.453125 C 321.726562 54.621094 321.953125 54.648438 322.203125 54.816406 C 322.375 54.929688 322.597656 54.957031 322.765625 55.070312 L 322.992188 55.097656 C 323.300781 55.179688 323.554688 55.347656 323.777344 55.375 C 325.042969 55.851562 326.335938 56.464844 327.625 57.078125 C 328.1875 57.332031 328.695312 57.667969 329.199219 58.003906 C 329.367188 58.113281 329.535156 58.226562 329.703125 58.339844 L 329.875 58.449219 C 329.957031 58.507812 330.042969 58.5625 330.210938 58.675781 C 330.714844 59.011719 331.082031 59.375 331.472656 59.878906 C 331.671875 60.132812 331.808594 60.46875 331.808594 60.835938 C 331.839844 60.976562 331.921875 61.03125 331.867188 61.117188 C 331.921875 61.398438 331.894531 61.625 331.949219 61.90625 C 331.976562 62.410156 331.835938 62.804688 331.554688 63.230469 C 331.441406 63.398438 331.414062 63.625 331.386719 63.847656 C 331.300781 64.160156 331.273438 64.382812 331.105469 64.636719 C 330.851562 65.203125 330.683594 65.824219 330.429688 66.386719 L 330.289062 66.78125 C 330.203125 67.089844 330.0625 67.484375 329.894531 67.738281 C 329.78125 67.910156 329.808594 68.050781 329.699219 68.21875 L 329.585938 68.386719 L 329.472656 68.558594 L 329.359375 68.726562 C 329.304688 68.8125 329.277344 69.035156 329.21875 69.121094 C 329.023438 69.601562 328.964844 70.050781 328.683594 70.472656 C 328.234375 71.152344 327.671875 71.632812 326.96875 71.773438 C 326.40625 71.886719 325.902344 71.917969 325.339844 71.667969 C 325.117188 71.640625 324.890625 71.613281 324.722656 71.5 C 324.074219 71.191406 323.515625 70.941406 322.867188 70.632812 C 322.617188 70.464844 322.304688 70.382812 321.96875 70.160156 C 321.015625 69.769531 320.058594 69.378906 318.878906 68.960938 C 317.867188 68.652344 316.828125 68.207031 315.339844 67.703125 C 314.160156 67.285156 312.925781 66.953125 311.773438 66.675781 C 311.464844 66.59375 311.238281 66.566406 310.929688 66.480469 L 309.636719 66.234375 C 308.34375 65.984375 307.050781 65.734375 305.675781 65.429688 C 304.832031 65.234375 303.933594 65.125 303.035156 65.015625 C 302.136719 64.90625 301.179688 64.882812 300.28125 64.773438 L 299.917969 64.773438 C 298.285156 64.667969 296.433594 64.535156 294.746094 64.511719 C 294.382812 64.511719 293.707031 64.429688 292.976562 64.433594 Z M 292.976562 64.433594 "/>
</g>
</g>
</g>
<g clip-path="url(#clip16)" clip-rule="nonzero">
<g clip-path="url(#clip17)" clip-rule="nonzero">
<g clip-path="url(#clip18)" clip-rule="nonzero">
<path style=" stroke:none;fill-rule:nonzero;fill:rgb(100%,100%,100%);fill-opacity:1;" d="M 299.898438 71.578125 C 298.988281 71.535156 297.945312 71.515625 297.035156 71.472656 C 295.9375 71.535156 294.785156 71.679688 293.683594 71.738281 L 293.496094 71.84375 C 292.207031 72.011719 290.839844 72.121094 289.28125 72.335938 C 287.996094 72.503906 286.4375 72.71875 285.039062 73.042969 C 283.695312 73.289062 282.375 73.667969 281.1875 74.023438 L 279.734375 74.429688 C 279.140625 74.605469 278.414062 74.808594 277.710938 75.144531 C 277.0625 75.402344 276.226562 75.765625 275.386719 76.125 C 275.007812 76.332031 274.683594 76.460938 274.304688 76.671875 C 273.925781 76.878906 273.546875 77.085938 273.089844 77.238281 C 272.25 77.601562 271.492188 78.019531 270.789062 78.355469 C 269.351562 79.242188 267.859375 80.210938 266.5 81.152344 C 265.519531 81.886719 264.539062 82.621094 263.695312 83.332031 C 263.09375 83.855469 262.546875 84.304688 261.867188 84.773438 C 261.566406 85.039062 261.324219 85.222656 260.945312 85.429688 C 260.453125 85.796875 259.964844 86.164062 259.472656 86.53125 C 258.875 87.058594 258.273438 87.585938 257.726562 88.03125 L 256.75 88.765625 C 256.148438 89.292969 255.546875 89.816406 254.890625 90.425781 C 254.347656 90.871094 253.824219 91.453125 253.359375 91.953125 L 253.304688 92.035156 C 252.726562 92.695312 251.960938 93.460938 251.328125 94.199219 C 251.105469 94.519531 250.75 94.859375 250.53125 95.179688 C 250.253906 95.574219 249.84375 96 249.566406 96.394531 C 248.359375 97.796875 247.117188 99.414062 245.792969 101.320312 L 245.570312 101.640625 C 244.574219 103.070312 243.523438 104.582031 242.496094 106.226562 C 242.164062 106.703125 241.914062 107.238281 241.582031 107.714844 C 241.359375 108.03125 241.273438 108.324219 241.050781 108.644531 L 240.832031 108.960938 C 240.445312 109.519531 240.191406 110.050781 239.804688 110.605469 C 239.550781 111.140625 239.242188 111.75 238.992188 112.285156 C 238.847656 112.65625 238.574219 113.054688 238.429688 113.425781 C 238.234375 113.878906 237.957031 114.277344 237.8125 114.652344 C 237.5625 115.183594 237.230469 115.660156 236.976562 116.191406 C 236.558594 116.960938 236.21875 117.789062 235.878906 118.613281 L 235.59375 119.359375 L 235.398438 119.8125 C 235.003906 120.71875 234.554688 121.703125 234.183594 122.742188 C 233.789062 123.648438 233.472656 124.609375 233.046875 125.726562 C 232.761719 126.472656 232.613281 127.195312 232.382812 127.863281 C 232.296875 128.15625 232.210938 128.449219 232.121094 128.742188 C 231.886719 129.757812 231.515625 130.796875 231.199219 131.757812 C 231.027344 132.34375 230.71875 132.957031 230.542969 133.542969 L 230.402344 133.917969 C 230.371094 134.132812 230.257812 134.289062 230.148438 134.449219 C 229.539062 135.324219 228.300781 135.757812 227.289062 135.527344 C 227.019531 135.578125 226.671875 135.570312 226.378906 135.484375 C 225.367188 135.253906 224.277344 134.96875 223.105469 134.625 C 222.601562 134.507812 222.09375 134.394531 221.722656 134.253906 L 221.296875 134.191406 C 220.871094 134.132812 220.496094 133.992188 220.125 133.851562 C 219.753906 133.710938 219.328125 133.648438 218.820312 133.535156 C 217.890625 133.359375 217.183594 132.515625 216.996094 131.4375 L 216.84375 130.980469 C 216.695312 130.519531 216.757812 130.09375 216.875 129.585938 L 216.882812 129.238281 C 217 128.730469 217.039062 128.167969 217.160156 127.660156 C 217.277344 127.152344 217.449219 126.566406 217.511719 126.136719 C 217.65625 125.761719 217.773438 125.253906 217.835938 124.828125 L 218.011719 124.242188 C 218.128906 123.734375 218.328125 123.28125 218.46875 122.90625 C 218.5 122.691406 218.609375 122.535156 218.640625 122.320312 C 218.871094 121.652344 219.101562 120.988281 219.328125 120.320312 C 219.589844 119.441406 219.90625 118.480469 220.246094 117.652344 C 220.527344 116.90625 220.8125 116.160156 221.097656 115.414062 C 221.492188 114.511719 221.808594 113.550781 222.121094 112.589844 C 222.699219 110.75 223.648438 109.046875 224.460938 107.371094 L 224.710938 106.839844 C 224.910156 106.386719 225.242188 105.910156 225.4375 105.457031 C 226 104.3125 226.617188 103.089844 227.3125 101.921875 L 227.476562 101.683594 C 228.28125 100.355469 229.0625 98.894531 229.949219 97.621094 C 230.226562 97.222656 230.558594 96.746094 230.832031 96.347656 C 231.386719 95.554688 231.996094 94.679688 232.46875 93.828125 L 232.800781 93.351562 C 233.132812 92.875 233.382812 92.339844 233.714844 91.863281 C 233.773438 91.785156 233.773438 91.785156 233.828125 91.707031 C 234.269531 91.070312 234.765625 90.355469 235.398438 89.613281 C 236.417969 88.316406 237.460938 87.152344 238.480469 85.855469 L 238.945312 85.355469 C 239.742188 84.375 240.429688 83.554688 241.195312 82.792969 C 241.796875 82.265625 242.320312 81.683594 242.976562 81.078125 L 243.542969 80.765625 C 243.898438 80.421875 244.199219 80.160156 244.554688 79.816406 C 245.675781 78.710938 246.933594 77.578125 248.132812 76.523438 C 249.46875 75.449219 250.804688 74.371094 252.140625 73.292969 C 252.386719 73.109375 252.574219 73.003906 252.820312 72.820312 C 256.058594 70.355469 258.722656 68.550781 261.378906 67.09375 C 263.003906 66.101562 264.601562 65.324219 266.140625 64.625 C 266.523438 64.417969 266.980469 64.261719 267.359375 64.054688 C 267.738281 63.847656 268.0625 63.71875 268.441406 63.511719 C 269.28125 63.148438 270.0625 62.867188 270.765625 62.53125 L 271.089844 62.402344 L 270.765625 62.53125 C 271.925781 62.039062 273.113281 61.683594 274.21875 61.273438 C 274.8125 61.097656 275.40625 60.917969 275.917969 60.6875 C 277.617188 60.097656 279.394531 59.5625 281.386719 59.0625 C 283.109375 58.609375 284.9375 58.34375 287.03125 58.03125 C 288.375 57.785156 290.144531 57.597656 291.96875 57.335938 C 293.394531 57.144531 294.972656 57.0625 296.902344 56.988281 C 298 56.925781 299.042969 56.945312 300.089844 56.960938 L 301.234375 57.167969 L 301.582031 57.175781 C 302.199219 57.132812 302.839844 57.222656 303.457031 57.179688 C 304.152344 57.191406 304.871094 57.335938 305.566406 57.347656 L 305.859375 57.433594 L 306.417969 57.472656 C 307.195312 57.539062 308.046875 57.660156 308.902344 57.78125 C 309.035156 57.757812 309.117188 57.8125 309.328125 57.84375 C 309.753906 57.902344 310.101562 57.910156 310.476562 58.050781 L 310.554688 58.105469 C 311.058594 58.21875 311.621094 58.257812 312.183594 58.292969 C 313.382812 58.417969 314.453125 58.570312 315.675781 58.832031 C 316.476562 59.035156 317.21875 59.316406 317.9375 59.460938 C 318.601562 59.6875 319.1875 59.859375 319.90625 60.003906 C 320.917969 60.238281 321.898438 60.683594 322.855469 60.992188 L 323.226562 61.132812 C 323.675781 61.328125 324.105469 61.390625 324.554688 61.585938 C 325.433594 61.839844 326.332031 62.230469 327.234375 62.621094 C 327.472656 62.789062 327.683594 62.816406 327.921875 62.984375 C 328.082031 63.09375 328.292969 63.125 328.453125 63.234375 L 328.664062 63.261719 C 328.957031 63.347656 329.195312 63.515625 329.410156 63.542969 C 330.601562 64.019531 331.820312 64.628906 333.039062 65.242188 C 333.566406 65.492188 334.042969 65.820312 334.515625 66.152344 C 334.675781 66.261719 334.832031 66.371094 334.992188 66.480469 L 335.148438 66.589844 C 335.226562 66.644531 335.308594 66.699219 335.464844 66.8125 C 335.941406 67.140625 336.28125 67.496094 336.644531 67.984375 C 336.824219 68.230469 336.953125 68.550781 336.945312 68.902344 C 336.96875 69.035156 337.046875 69.089844 336.992188 69.171875 C 337.039062 69.4375 337.007812 69.652344 337.054688 69.921875 C 337.070312 70.40625 336.929688 70.777344 336.652344 71.175781 C 336.542969 71.335938 336.511719 71.550781 336.480469 71.761719 C 336.394531 72.054688 336.359375 72.269531 336.195312 72.507812 C 335.941406 73.042969 335.769531 73.628906 335.515625 74.160156 L 335.375 74.535156 C 335.289062 74.828125 335.144531 75.199219 334.980469 75.4375 C 334.867188 75.597656 334.894531 75.734375 334.78125 75.890625 L 334.5625 76.210938 L 334.449219 76.367188 C 334.394531 76.449219 334.363281 76.664062 334.308594 76.742188 C 334.109375 77.195312 334.046875 77.621094 333.773438 78.019531 C 333.328125 78.65625 332.785156 79.101562 332.113281 79.226562 C 331.574219 79.324219 331.09375 79.34375 330.5625 79.09375 C 330.347656 79.0625 330.136719 79.03125 329.976562 78.921875 C 329.367188 78.617188 328.839844 78.367188 328.230469 78.0625 C 327.992188 77.894531 327.699219 77.8125 327.382812 77.589844 C 326.484375 77.199219 325.582031 76.808594 324.46875 76.386719 C 323.511719 76.078125 322.53125 75.632812 321.121094 75.125 C 320.007812 74.703125 318.839844 74.363281 317.746094 74.074219 C 317.453125 73.992188 317.242188 73.960938 316.949219 73.875 L 315.722656 73.613281 C 314.5 73.351562 313.273438 73.089844 311.96875 72.773438 C 311.171875 72.570312 310.316406 72.449219 309.460938 72.328125 C 308.609375 72.207031 307.699219 72.164062 306.847656 72.042969 L 306.5 72.035156 C 304.949219 71.902344 303.1875 71.738281 301.582031 71.683594 C 301.234375 71.679688 300.59375 71.589844 299.898438 71.578125 Z M 299.898438 71.578125 "/>
</g>
</g>
</g>
<g clip-path="url(#clip19)" clip-rule="nonzero">
<path style=" stroke:none;fill-rule:nonzero;fill:rgb(100%,100%,100%);fill-opacity:1;" d="M 108.796875 236.914062 L 200.664062 144.933594 L 187.542969 131.792969 L 82.550781 236.914062 L 187.542969 342.046875 L 200.664062 328.90625 Z M 108.796875 236.914062 "/>
</g>
<g clip-path="url(#clip20)" clip-rule="nonzero">
<path style=" stroke:none;fill-rule:nonzero;fill:rgb(100%,100%,100%);fill-opacity:1;" d="M 267.683594 236.914062 L 175.816406 144.933594 L 188.941406 131.792969 L 293.929688 236.914062 L 188.941406 342.046875 L 175.816406 328.90625 Z M 267.683594 236.914062 "/>
</g>
<g clip-path="url(#clip21)" clip-rule="nonzero">
<path style=" stroke:none;fill-rule:nonzero;fill:rgb(100%,100%,100%);fill-opacity:1;" d="M 125.105469 236.644531 L 196.035156 166.015625 L 185.90625 155.925781 L 104.84375 236.644531 L 185.90625 317.367188 L 196.035156 307.28125 Z M 125.105469 236.644531 "/>
</g>
<g clip-path="url(#clip22)" clip-rule="nonzero">
<path style=" stroke:none;fill-rule:nonzero;fill:rgb(100%,100%,100%);fill-opacity:1;" d="M 251.738281 236.644531 L 180.808594 166.015625 L 190.941406 155.925781 L 272.003906 236.644531 L 190.941406 317.367188 L 180.808594 307.28125 Z M 251.738281 236.644531 "/>
</g>
<g clip-path="url(#clip23)" clip-rule="nonzero">
<path style=" stroke:none;fill-rule:nonzero;fill:rgb(100%,100%,100%);fill-opacity:1;" d="M 136.777344 236.773438 L 196.082031 177.644531 L 187.609375 169.195312 L 119.835938 236.773438 L 187.609375 304.359375 L 196.082031 295.910156 Z M 136.777344 236.773438 "/>
</g>
<g clip-path="url(#clip24)" clip-rule="nonzero">
<path style=" stroke:none;fill-rule:nonzero;fill:rgb(100%,100%,100%);fill-opacity:1;" d="M 240.074219 236.773438 L 180.769531 177.644531 L 189.242188 169.195312 L 257.015625 236.773438 L 189.242188 304.359375 L 180.769531 295.910156 Z M 240.074219 236.773438 "/>
</g>
</g>
</svg>
